<svg xmlns="http://www.w3.org/2000/svg" viewBox="0 0 158.7 40.03"><defs><style>.cls-1,.cls-2,.cls-3{fill:#fff;}.cls-2{opacity:0.8;}.cls-3{opacity:0.9;}</style></defs><title>logo-white</title><g id="Layer_2" data-name="Layer 2"><g id="Layer_1-2" data-name="Layer 1"><path class="cls-1" d="M5.37,26.42V13.61a1.84,1.84,0,0,1,.25-.92L1,10H1a7.12,7.12,0,0,0-1,3.6V26.42A7.12,7.12,0,0,0,1,30l4.65-2.68A1.84,1.84,0,0,1,5.37,26.42Z"/><path class="cls-2" d="M19.21,5.62l9.64,5.56a2.68,2.68,0,0,0,3.65-.94h0a2.69,2.69,0,0,0-1-3.71L21.9,1a7.12,7.12,0,0,0-3.6-1V5.37A1.83,1.83,0,0,1,19.21,5.62Z"/><path class="cls-2" d="M21.9,39.07l9.64-5.57a2.69,2.69,0,0,0,1-3.71h0a2.69,2.69,0,0,0-3.65-.94l-9.64,5.56a1.73,1.73,0,0,1-.91.25V40A7.21,7.21,0,0,0,21.9,39.07Z"/><path class="cls-3" d="M6.29,12l11.09-6.4a1.79,1.79,0,0,1,.92-.25h0V0h0a7.12,7.12,0,0,0-3.6,1L3.6,7.37A7.16,7.16,0,0,0,1,10l4.65,2.68A1.87,1.87,0,0,1,6.29,12Z"/><path class="cls-3" d="M17.38,34.41,6.29,28a1.87,1.87,0,0,1-.67-.67L1,30H1A7.16,7.16,0,0,0,3.6,32.66l11.1,6.41a7.21,7.21,0,0,0,3.6,1h0V34.66h0A1.79,1.79,0,0,1,17.38,34.41Z"/><polygon class="cls-1" points="18.3 20.02 18.3 20.02 18.3 20.01 18.3 20.02"/><path class="cls-1" d="M25.64,14.66,19.27,11a2,2,0,0,0-1-.26h0a2,2,0,0,0-1,.26L11,14.66a1.93,1.93,0,0,0-.71.71h0l8,4.64h0l8-4.63h0A1.93,1.93,0,0,0,25.64,14.66Z"/><path class="cls-2" d="M18.3,20l-8-4.64h0a1.9,1.9,0,0,0-.26,1v7.35a1.9,1.9,0,0,0,.26,1,1.93,1.93,0,0,0,.71.71l6.37,3.68a1.86,1.86,0,0,0,1,.26h0V20Z"/><path class="cls-3" d="M26.35,15.37h0L18.3,20h0v9.27h0a2,2,0,0,0,1-.26l6.37-3.68a1.93,1.93,0,0,0,.71-.71,1.9,1.9,0,0,0,.26-1V16.34A1.9,1.9,0,0,0,26.35,15.37Z"/><path class="cls-1" d="M53.16,22.36v1.4c0,2.2-1,3.2-3.2,3.2h-5.2c-2.2,0-3.2-1-3.2-3.2v-8c0-2.2,1-3.2,3.2-3.2H50c2.2,0,3.2,1,3.2,3.2v1.4h-1.8v-1.4c0-1.1-.3-1.52-1.4-1.52h-5.2c-1.1,0-1.4.42-1.4,1.52v8c0,1.1.3,1.52,1.4,1.52H50c1.1,0,1.4-.42,1.4-1.52v-1.4Z"/><path class="cls-1" d="M61.76,17.44H59c-1.1,0-1.4.42-1.4,1.52v8h-1.8V19c0-2.2,1-3.2,3.2-3.2h2.8Z"/><path class="cls-1" d="M74,15.76,68.26,31H66.34l1.5-4H67l-4.24-11.2h1.92l3.6,9.52h.2l3.6-9.52Z"/><path class="cls-1" d="M75.8,31V19c0-2.2,1-3.2,3.2-3.2h3.6c2.2,0,3.2,1,3.2,3.2v4.8c0,2.2-1,3.2-3.2,3.2h-5v4Zm1.8-12v6.32h5c1.1,0,1.4-.42,1.4-1.52V19c0-1.1-.3-1.52-1.4-1.52H79C77.9,17.44,77.6,17.86,77.6,19Z"/><path class="cls-1" d="M94.5,25.28V27H91.3c-2,0-2.8-.8-2.8-2.8V13.76h1.8v2h3.8v1.68H90.3v6.72c0,.8.2,1.12,1,1.12Z"/><path class="cls-1" d="M106.7,19v4.8c0,2.2-1,3.2-3.2,3.2H99.9c-2.2,0-3.2-1-3.2-3.2V19c0-2.2,1-3.2,3.2-3.2h3.6C105.7,15.76,106.7,16.76,106.7,19Zm-1.8,0c0-1.1-.3-1.52-1.4-1.52H99.9c-1.1,0-1.4.42-1.4,1.52v4.8c0,1.1.3,1.52,1.4,1.52h3.6c1.1,0,1.4-.42,1.4-1.52Z"/><path class="cls-1" d="M120.7,22.56v1.2c0,2.2-1,3.2-3.2,3.2h-4.8c-2.2,0-3.2-1-3.2-3.2v-8c0-2.2,1-3.2,3.2-3.2h4.8c2.2,0,3.2,1,3.2,3.2V17h-1.2v-1.2c0-1.5-.5-2.08-2-2.08h-4.8c-1.5,0-2,.58-2,2.08v8c0,1.5.5,2.08,2,2.08h4.8c1.5,0,2-.58,2-2.08v-1.2Z"/><path class="cls-1" d="M133.3,15.76v8c0,2.2-1,3.2-3.2,3.2h-3.2c-2.2,0-3.2-1-3.2-3.2v-8h1.2v8c0,1.5.5,2.08,2,2.08h3.2c1.5,0,2-.58,2-2.08v-8Z"/><path class="cls-1" d="M137.7,15.76h5.2c2.2,0,3.2,1,3.2,3.2v4.8c0,2.2-1,3.2-3.2,3.2h-3.2c-2.2,0-3.2-1-3.2-3.2v-12h1.2Zm5.2,10.08c1.5,0,2-.58,2-2.08V19c0-1.5-.5-2.08-2-2.08h-5.2v6.88c0,1.5.5,2.08,2,2.08Z"/><path class="cls-1" d="M158.7,19v3h-8.4v1.84c0,1.5.5,2.08,2,2.08h3.2c1.5,0,2-.58,2-2.08v-.4h1.2v.4c0,2.2-1,3.2-3.2,3.2h-3.2c-2.2,0-3.2-1-3.2-3.2V19c0-2.2,1-3.2,3.2-3.2h3.2C157.7,15.76,158.7,16.76,158.7,19Zm-1.2,0c0-1.5-.5-2.08-2-2.08h-3.2c-1.5,0-2,.58-2,2.08V20.8h7.2Z"/></g></g></svg>